<svg fill="none" height="24" viewBox="0 0 24 24" width="24" xmlns="http://www.w3.org/2000/svg"><g stroke="#17191c" stroke-miterlimit="10" stroke-width="1.5"><path d="m19.0001 7v.5c-.1 1.5-.8 2.8-1.7 3.7-1.1 1.1-2.6 1.8-4.3 1.8h-3.10004c-.5 0-.9.4-1 .9l-.8 5.3c-.1.4-.3.7-.7.8-.1 0-.2 0-.3 0h-1.9c-.6 0-1.1-.5-1-1.2l2.4-14.3c.2-1.4 1.5-2.5 2.9-2.5h4.50004c2.8 0 5 2.2 5 5z"/><path d="m21.0001 11c0 1.4-.6 2.6-1.5 3.5s-2.1 1.5-3.5 1.5h-2.1c-.5 0-.9.3-1 .8l-.7 4.3c-.1.5-.5.8-1 .8h-3.00004c-.6 0-1.1-.6-1-1.2l.2-.7c.4-.1.7-.4.7-.8l.8-5.3c.1-.5.5-.9 1-.9h3.10004c1.7 0 3.2-.7 4.2-1.8 1-1 1.6-2.3 1.7-3.7 1.3.7 2.1 2 2.1 3.5z"/></g></svg>