<svg xmlns="http://www.w3.org/2000/svg" shape-rendering="geometricPrecision" text-rendering="geometricPrecision" image-rendering="optimizeQuality" fill-rule="evenodd" clip-rule="evenodd" viewBox="0 0 512 512"><path fill="#999" fill-rule="nonzero" d="M256 0c70.68 0 134.69 28.66 181.01 74.99C483.34 121.31 512 185.32 512 256c0 70.68-28.66 134.69-74.99 181.01C390.69 483.34 326.68 512 256 512c-70.68 0-134.69-28.66-181.01-74.99C28.66 390.69 0 326.68 0 256c0-70.68 28.66-134.69 74.99-181.01C121.31 28.66 185.32 0 256 0z"/><path fill="#fff" fill-rule="nonzero" d="M255.99 19.48c65.31 0 124.46 26.48 167.25 69.27 42.79 42.79 69.28 101.93 69.28 167.24s-26.49 124.46-69.28 167.25c-42.79 42.79-101.94 69.28-167.25 69.28-65.23 0-124.38-26.51-167.18-69.33-42.84-42.74-69.33-101.89-69.33-167.2 0-65.31 26.48-124.45 69.27-167.24 42.79-42.79 101.93-69.27 167.24-69.27z"/><path fill="#00008b" fill-rule="nonzero" d="M470.01 223.66C451.75 119.5 360.86 40.35 251.48 40.35c-10.72 0-21.27.78-31.58 2.25C117.57 59.78 39.59 148.78 39.59 255.99c0 119.52 96.89 216.42 216.4 216.42 119.54 0 216.42-96.9 216.42-216.42 0-10.99-.82-21.79-2.4-32.33z"/><path fill="#fff" d="m147.45 278.02 10.64 33.23 32.71-12.42-19.37 29.25 30.09 17.77-34.81 3.04 4.84 34.73-24.1-25.47-24.18 25.47 4.85-34.73-34.83-3.04 30.07-17.77-19.35-29.25 32.72 12.42zm284.93 59.94 5.03 15.78 14.35-5.42-2.61 5.37-5.32 8.04.77.46a215.75 215.75 0 0 1-10.1 16.19l-2.12-2.24-11.47 12.1 2.2-16.51-16.51-1.48 14.31-8.52-9.26-13.87 15.57 5.88 5.16-15.78zm-1.82-206.76-9.65 10.19 2.2-16.51-16.51-1.48 11.98-7.15c4.2 4.82 8.19 9.79 11.98 14.95zm-70.85 60.13 5.14 15.89 15.57-5.88-9.25 13.89 14.3 8.51-16.5 1.37 2.2 16.5-11.46-12.08-11.47 12.08 2.31-16.5-16.61-1.37 14.3-8.51-9.15-13.89 15.56 5.88zM469.39 241l2.86 7.04c.1 2.63.16 5.29.16 7.95 0 3.03-.08 6.04-.2 9.03l-2.82-1.73-9.04 5.56 2.53-10.4-8.2-6.84 10.72-.73 3.99-9.88z"/><path fill="#fff" fill-rule="nonzero" d="m93.74 112.83 177.61 88.81h36.92v-18.38L118.91 88.54c-9.04 7.4-17.45 15.54-25.17 24.29zm-41.61 70.41a215.701 215.701 0 0 1 25.28-49.49L263.5 40.67c15.39.8 30.36 3.21 44.77 7.01v7.46L52.13 183.24z"/><path fill="#fff" fill-rule="nonzero" d="M69.16 146.75h46.75v54.89h55.01v-54.89h137.35V91.74H170.92V56.96a216.49 216.49 0 0 0-55.01 34.1v.68h-.81a217.138 217.138 0 0 0-45.94 55.01z"/><path fill="red" fill-rule="nonzero" d="M76.09 135.7h50.76v65.94h33.02V135.7h148.4v-33.02h-148.4v-40.6a215.488 215.488 0 0 0-33.02 20.27v20.33h-23.6c-10.1 10.06-19.19 21.14-27.16 33.02z"/><path fill="red" fill-rule="nonzero" d="m62.13 159.76 26.22-13.12h24.61L55 175.66c2.17-5.42 4.54-10.72 7.13-15.9zM274.16 41.49c6.43.65 12.79 1.58 19.03 2.79l-94.94 47.46h-24.49l100.4-50.25zm34.11 160.15-110.02-55h24.63l85.29 42.7v12.3h.1z"/></svg>