<svg xmlns="http://www.w3.org/2000/svg" shape-rendering="geometricPrecision" text-rendering="geometricPrecision" image-rendering="optimizeQuality" fill-rule="evenodd" clip-rule="evenodd" viewBox="0 0 512 512"><g fill-rule="nonzero"><path fill="#999" d="M256 0c70.68 0 134.69 28.66 181.01 74.99C483.34 121.31 512 185.32 512 256c0 70.68-28.66 134.69-74.99 181.01C390.69 483.34 326.68 512 256 512c-70.68 0-134.69-28.66-181.01-74.99C28.66 390.69 0 326.68 0 256c0-70.68 28.66-134.69 74.99-181.01C121.31 28.66 185.32 0 256 0z"/><path fill="#fff" d="M256 19.48c65.3 0 124.46 26.48 167.25 69.27l1.09 1.18c42.14 42.71 68.18 101.37 68.18 166.06 0 65.31-26.49 124.46-69.28 167.25l-1.19 1.09c-42.73 42.16-101.4 68.19-166.05 68.19-65.3 0-124.45-26.49-167.24-69.28-42.79-42.79-69.29-101.95-69.29-167.25 0-65.23 26.51-124.38 69.34-167.18C131.55 45.97 190.7 19.48 256 19.48z"/><path fill="#EE1C25" d="M256 39.59c119.52 0 216.41 96.89 216.41 216.4 0 119.52-96.89 216.42-216.41 216.42-119.51 0-216.41-96.9-216.41-216.42 0-119.51 96.9-216.4 216.41-216.4z"/><path fill="#ff0" d="m156.3 97.57 44.4 136.68-116.27-84.47h143.7l-116.25 84.47L156.3 97.57zm134.8 152.74-2.23 47.84-26.33-40 44.82 16.88-46.19 12.67 29.93-37.39zm65.15-35.44-37.72 29.52 13.16-46.06 16.4 44.99-39.73-26.74 47.89-1.71zm-5.59-84.44-22.38 42.34-6.79-47.43 33.33 34.37-47.17-8.2 43.01-21.08zM292.08 74.4l-4.23 47.71-24.64-41.06L307.3 99.8l-46.69 10.74 31.47-36.14z"/></g></svg>