<svg xmlns="http://www.w3.org/2000/svg" shape-rendering="geometricPrecision" text-rendering="geometricPrecision" image-rendering="optimizeQuality" fill-rule="evenodd" clip-rule="evenodd" viewBox="0 0 512 512"><g fill-rule="nonzero"><path fill="#4D4D4D" d="M256 0c70.683 0 134.689 28.663 181.012 74.987C483.336 121.311 512 185.316 512 256c0 70.683-28.664 134.689-74.988 181.012C390.689 483.336 326.683 512 256 512c-70.677 0-134.689-28.664-181.013-74.988C28.663 390.689 0 326.676 0 256c0-70.684 28.663-134.689 74.987-181.013C121.311 28.663 185.316 0 256 0z"/><path fill="#fff" d="M256.001 19.596c65.278 0 124.383 26.467 167.162 69.243 42.777 42.78 69.243 101.884 69.243 167.162S465.94 380.384 423.16 423.16c-42.776 42.78-101.881 69.246-167.159 69.246-65.278 0-124.382-26.466-167.162-69.243-42.776-42.779-69.243-101.884-69.243-167.162S46.063 131.619 88.839 88.839c42.78-42.776 101.884-69.243 167.162-69.243z"/><path fill="#fff" d="M256.001 39.594c119.518 0 216.407 96.887 216.407 216.407 0 119.518-96.889 216.407-216.407 216.407-119.52 0-216.407-96.889-216.407-216.407 0-119.52 96.887-216.407 216.407-216.407z"/><path d="M454.438 169.562H57.564C90.932 93.07 167.213 39.594 256.001 39.594c88.786 0 165.069 53.476 198.437 129.968z"/><path fill="#060" d="M58.078 343.615h395.844c-33.634 75.864-109.59 128.793-197.921 128.793-88.334 0-164.289-52.929-197.923-128.793z"/><path stroke="#000" stroke-width=".348" stroke-miterlimit="22.926" d="M176.582 385.769l4.709 2.721 127.04-220.041c7.43-1.989 11.507-9.057 15.587-16.121 2.722-4.712 13.598-23.552 18.315-48.034-18.846 16.322-29.725 35.165-32.444 39.874-4.08 7.068-8.16 14.132-6.17 21.562L176.582 385.769z"/><path fill="#fff" d="M176.582 385.769l4.709 2.721 127.04-220.041c7.43-1.989 11.507-9.057 15.587-16.121 2.722-4.712 13.598-23.552 18.315-48.034-18.846 16.322-29.725 35.165-32.444 39.874-4.08 7.068-8.16 14.132-6.17 21.562L176.582 385.769z"/><path stroke="#000" stroke-width=".348" stroke-miterlimit="22.926" d="M332.025 385.769l-4.709 2.721-127.039-220.041c-7.431-1.989-11.508-9.057-15.588-16.121-2.722-4.712-13.597-23.552-18.315-48.034 18.847 16.322 29.725 35.165 32.444 39.874 4.08 7.068 8.16 14.132 6.17 21.562l127.037 220.039z"/><path fill="#fff" d="M332.025 385.769l-4.709 2.721-127.039-220.041c-7.431-1.989-11.508-9.057-15.588-16.121-2.722-4.712-13.597-23.552-18.315-48.034 18.847 16.322 29.725 35.165 32.444 39.874 4.08 7.068 8.16 14.132 6.17 21.562l127.037 220.039z"/><path fill="#B00" d="M49.812 321.857h152.82c8.16 21.758 35.355 65.272 51.672 65.272 16.316 0 43.511-43.514 51.671-65.272H462.19c6.628-20.768 10.218-42.891 10.218-65.856 0-22.531-3.448-44.255-9.837-64.681H305.975c-8.16-21.758-35.355-65.272-51.671-65.272-16.317 0-43.512 43.514-51.672 65.272H49.431c-6.389 20.426-9.837 42.15-9.837 64.681 0 22.965 3.59 45.088 10.218 65.856z"/><path d="M305.975 321.857c8.16-21.757 13.598-43.511 13.598-65.269 0-21.757-5.438-43.511-13.598-65.268-8.16 21.757-13.598 43.511-13.598 65.268 0 21.758 5.441 43.512 13.598 65.269zM202.632 321.857c-8.16-21.757-13.597-43.511-13.597-65.269 0-21.757 5.437-43.511 13.597-65.268 8.16 21.757 13.598 43.511 13.598 65.268 0 21.758-5.441 43.512-13.598 65.269z"/><path fill="#fff" d="M265.182 256.588c0-9.012-4.871-16.316-10.878-16.316-6.008 0-10.879 7.304-10.879 16.316 0 9.013 4.871 16.317 10.879 16.317 6.007 0 10.878-7.304 10.878-16.317z"/><path fill="#fff" d="M257.023 272.498s10.878 21.757 10.878 57.112c0 35.355-10.878 57.112-10.878 57.112V272.498zM251.585 240.679s-10.879-21.757-10.879-57.112c0-35.354 10.879-57.112 10.879-57.112v114.224zM251.585 272.498s-10.879 21.757-10.879 57.112c0 35.355 10.879 57.112 10.879 57.112V272.498zM257.023 240.679s10.878-21.757 10.878-57.112c0-35.354-10.878-57.112-10.878-57.112v114.224z"/></g></svg>