<svg xmlns="http://www.w3.org/2000/svg" shape-rendering="geometricPrecision" text-rendering="geometricPrecision" image-rendering="optimizeQuality" fill-rule="evenodd" clip-rule="evenodd" viewBox="0 0 512 512"><g fill-rule="nonzero"><path fill="#999" d="M256 0c70.68 0 134.69 28.66 181.01 74.99C483.33 121.31 512 185.32 512 256c0 70.68-28.67 134.69-74.99 181.01C390.69 483.33 326.68 512 256 512c-70.68 0-134.69-28.67-181.01-74.99C28.67 390.69 0 326.68 0 256c0-70.68 28.67-134.69 74.99-181.01C121.31 28.66 185.32 0 256 0z"/><path fill="#fff" d="M256 19.48c65.3 0 124.46 26.48 167.25 69.27l1.09 1.19c42.14 42.71 68.18 101.36 68.18 166.05 0 65.31-26.5 124.46-69.29 167.25l-1.18 1.09c-42.73 42.16-101.4 68.19-166.05 68.19-65.23 0-124.37-26.51-167.18-69.33-42.84-42.74-69.33-101.89-69.33-167.2 0-65.31 26.48-124.45 69.27-167.24C131.55 45.96 190.7 19.48 256 19.48z"/><path fill="#006AA7" d="M256 39.59c104.68 0 192.08 74.4 212.1 173.27H233.86V40.72A216.2 216.2 0 01256 39.59zm211.75 261.2C447.11 398.82 360.16 472.41 256 472.41c-7.52 0-14.88-.38-22.14-1.12v-170.5h233.89zM145.93 442.34c-51.31-30.39-89-81.35-101.67-141.55h101.67v141.55zM43.91 212.86c12.32-60.94 50.2-112.57 102.02-143.21v143.21H43.91z"/><path fill="#FECC00" d="M44.26 300.79h101.67v141.55c26.25 15.53 56.07 25.72 87.93 28.95v-170.5h233.89c3.04-14.45 4.66-29.44 4.66-44.8 0-14.77-1.48-29.2-4.31-43.13H233.86V40.72a214.754 214.754 0 00-87.93 28.93v143.21H43.91c-2.84 13.93-4.31 28.36-4.31 43.13 0 15.36 1.62 30.35 4.66 44.8z"/></g></svg>