<svg xmlns="http://www.w3.org/2000/svg" shape-rendering="geometricPrecision" text-rendering="geometricPrecision" image-rendering="optimizeQuality" fill-rule="evenodd" clip-rule="evenodd" viewBox="0 0 512 512"><g fill-rule="nonzero"><path fill="#4D4D4D" d="M256 0c70.684 0 134.689 28.664 181.013 74.987C483.336 121.311 512 185.316 512 256c0 70.684-28.664 134.689-74.987 181.013C390.689 483.336 326.684 512 256 512c-70.677 0-134.69-28.664-181.013-74.987C28.663 390.689 0 326.676 0 256c0-70.684 28.663-134.689 74.987-181.013C121.31 28.664 185.316 0 256 0z"/><path fill="#fff" d="M256.001 19.596c65.278 0 124.383 26.467 167.162 69.243 42.777 42.779 69.243 101.884 69.243 167.162S465.94 380.384 423.16 423.16c-42.776 42.78-101.881 69.246-167.159 69.246-65.278 0-124.383-26.466-167.162-69.243-42.777-42.779-69.243-101.884-69.243-167.162S46.062 131.618 88.839 88.839c42.779-42.776 101.884-69.243 167.162-69.243z"/><path fill="#000C8A" d="M256.001 39.594c119.518 0 216.407 96.887 216.407 216.407 0 119.518-96.889 216.407-216.407 216.407-119.521 0-216.407-96.889-216.407-216.407 0-119.52 96.886-216.407 216.407-216.407z"/><path fill="#E1392D" d="M39.6 255.535h432.802c-.254-119.308-97.04-215.941-216.401-215.941-119.364 0-216.147 96.633-216.401 215.941z"/><path fill="#fff" d="M134.26 77.069l157.849 105.627h167.558c8.242 22.895 12.741 47.571 12.741 73.305 0 25.383-4.384 49.741-12.414 72.372H292.109L133.575 434.458C76.82 395.446 39.594 330.077 39.594 256.001c0-74.376 37.525-139.979 94.666-178.932z"/><path fill="#007847" d="M110.549 95.762l172.556 115.579h184.68a217.372 217.372 0 014.623 44.66c0 14.979-1.523 29.604-4.419 43.727H283.105L109.964 415.697c-43.246-39.567-70.37-96.461-70.37-159.696 0-63.521 27.366-120.651 70.955-160.239z"/><path fill="#FFB915" d="M58.762 166.829l133.499 88.706-133.818 88.918c-12.109-27.006-18.849-56.941-18.849-88.452 0-31.791 6.855-61.98 19.168-89.172z"/><path d="M48.451 194.582l91.433 60.953-91.664 61.109c-5.609-19.242-8.626-39.591-8.626-60.643 0-21.338 3.103-41.947 8.857-61.419z"/></g></svg>