<svg id="Layer_1" data-name="Layer 1" xmlns="http://www.w3.org/2000/svg" viewBox="0 0 437.25 503.61"><defs><style>.cls-1,.cls-2{fill:#ff007a;}.cls-2{fill-rule:evenodd;}</style></defs><title>uniswap-uni</title><path class="cls-1" d="M171.43,114.54c-5.45-.78-5.71-1-3.12-1.3,4.94-.78,16.37.26,24.42,2.08,18.7,4.41,35.58,15.84,53.5,35.84l4.68,5.46,6.75-1c28.83-4.68,58.44-1,83.11,10.39,6.76,3.11,17.41,9.35,18.7,10.9.52.52,1.3,3.9,1.82,7.28,1.82,12.2,1,21.29-2.85,28.31-2.08,3.89-2.08,4.93-.78,8.31a7.79,7.79,0,0,0,7,4.41c6.23,0,12.73-9.87,15.84-23.63l1.3-5.46,2.34,2.6c13.24,14.81,23.63,35.32,25.19,49.87l.52,3.89-2.34-3.37c-3.89-6-7.53-9.87-12.46-13.25-8.83-6-18.18-7.79-42.86-9.09-22.33-1.3-35.06-3.11-47.53-7.27-21.3-7-32.2-16.1-57.4-49.61-11.17-14.8-18.18-22.85-25.19-29.61C206.75,125.45,191.43,117.66,171.43,114.54Z"/><path class="cls-1" d="M364.93,147.53c.52-9.87,1.82-16.37,4.67-22.34,1-2.34,2.08-4.42,2.34-4.42s-.26,1.82-1,3.9c-2.08,5.71-2.34,13.76-1,22.86,1.82,11.68,2.6,13.24,15.07,26,5.71,6,12.46,13.5,15.06,16.62l4.42,5.71L400,191.68c-5.45-5.2-17.92-15.07-20.78-16.36-1.81-1-2.07-1-3.37.26-1,1-1.3,2.59-1.3,10.12-.26,11.69-1.82,19-5.72,26.5-2.07,3.89-2.33,3.11-.52-1.3,1.3-3.38,1.56-4.94,1.56-16.1,0-22.6-2.59-28.06-18.44-37.15-3.89-2.33-10.65-5.71-14.54-7.53a57.93,57.93,0,0,1-7-3.37c.51-.52,15.84,3.89,21.81,6.49,9.09,3.64,10.65,3.89,11.69,3.64C364.15,156.1,364.67,154,364.93,147.53Z"/><path class="cls-1" d="M182.08,186.22c-10.91-15.06-17.92-38.44-16.36-55.84l.52-5.45,2.59.52a60.93,60.93,0,0,1,16.63,6.23c10.39,6.24,15.06,14.81,19.48,36.1,1.29,6.24,3.11,13.51,3.89,15.85,1.3,3.89,6.24,13,10.39,18.7,2.86,4.15,1,6.23-5.45,5.71C203.9,207,190.65,197.91,182.08,186.22Z"/><path class="cls-1" d="M351.68,299.21c-51.42-20.78-69.6-38.7-69.6-69.09,0-4.42.25-8.05.25-8.05a49.86,49.86,0,0,1,4.42,3.37c10.39,8.31,22.08,11.95,54.54,16.63,19,2.85,29.87,4.93,39.74,8.31,31.43,10.39,50.91,31.68,55.58,60.51,1.3,8.31.52,24.16-1.56,32.47-1.81,6.49-7,18.44-8.31,18.7-.26,0-.78-1.3-.78-3.38-.52-10.91-6-21.29-15.06-29.35C400,320,386,313,351.68,299.21Z"/><path class="cls-1" d="M315.32,307.78a61.45,61.45,0,0,0-2.6-10.91l-1.3-3.9,2.34,2.86c3.38,3.9,6,8.57,8.31,15.06,1.82,4.94,1.82,6.5,1.82,14.55,0,7.79-.26,9.61-1.82,14a46.86,46.86,0,0,1-10.91,17.41c-9.35,9.61-21.55,14.8-39,17.14-3.12.26-11.95,1-19.74,1.56-19.48,1-32.47,3.11-44.16,7.27-1.56.52-3.11,1-3.37.78-.52-.52,7.53-5.2,14-8.31,9.09-4.42,18.44-6.76,39-10.39,10.13-1.56,20.52-3.64,23.12-4.68C306.75,352.19,319.48,332.19,315.32,307.78Z"/><path class="cls-1" d="M339,349.59q-10.14-22.2-4.68-42.07c.52-1.3,1-2.6,1.56-2.6a11.07,11.07,0,0,1,3.63,1.82c3.12,2.08,9.61,5.71,26.24,14.8,21,11.43,33,20.26,41.29,30.39,7.28,8.83,11.69,19,13.77,31.43,1.3,7,.52,23.89-1.3,30.9-5.71,22.08-18.7,39.74-37.66,49.87a36.28,36.28,0,0,1-5.45,2.6c-.26,0,.78-2.6,2.33-5.71,6.24-13.25,7-26,2.34-40.26-2.86-8.83-8.83-19.48-20.78-37.4C346,362.58,342.59,357.12,339,349.59Z"/><path class="cls-1" d="M145.46,429.07c19.22-16.1,42.85-27.53,64.67-31.17,9.35-1.56,24.93-1,33.51,1.3,13.76,3.64,26.23,11.43,32.72,21,6.23,9.35,9.09,17.4,11.95,35.32,1,7,2.34,14.29,2.6,15.84,2.07,9.36,6.23,16.63,11.42,20.52,8.06,6,22.08,6.24,35.85,1,2.33-.78,4.41-1.56,4.41-1.3.52.52-6.49,5.2-11.17,7.54a36.81,36.81,0,0,1-18.7,4.41c-12.46,0-23.11-6.49-31.68-19.48-1.82-2.6-5.46-10.13-8.57-17.14-9.1-21-13.77-27.27-24.42-34.28-9.35-6-21.3-7.28-30.39-2.86-11.94,5.71-15.06,21-6.75,30.39,3.38,3.89,9.61,7,14.8,7.79a15.86,15.86,0,0,0,17.93-15.85c0-6.23-2.34-9.86-8.58-12.72-8.31-3.64-17.4.52-17.14,8.57,0,3.38,1.56,5.45,4.94,7,2.08,1,2.08,1,.52.78-7.54-1.56-9.35-10.91-3.38-16.88,7.27-7.27,22.6-4.16,27.79,6,2.08,4.16,2.34,12.47.52,17.66C243.9,474,231.43,480,218.7,476.6c-8.57-2.34-12.21-4.68-22.59-15.32-18.19-18.7-25.2-22.34-51.17-26.24l-4.94-.78Z"/><path class="cls-2" d="M8.84,11.17C69.36,84.67,162.6,199,167.28,205.18c3.89,5.2,2.33,10.13-4.16,13.77-3.64,2.08-11.17,4.16-14.8,4.16a18.74,18.74,0,0,1-12.47-5.46c-2.34-2.34-12.47-17.14-35.32-52.72-17.41-27.27-32.21-49.87-32.47-50.13-1-.52-1-.52,30.65,56.1,20,35.58,26.49,48.31,26.49,49.87,0,3.37-1,5.19-5.19,9.87-7,7.79-10.13,16.62-12.47,35.06-2.6,20.52-9.61,35.06-29.61,59.74C66.24,340,64.42,342.58,61.57,348.55c-3.64,7.28-4.68,11.43-5.2,20.78-.52,9.87.52,16.11,3.38,25.46,2.6,8.31,5.45,13.76,12.47,24.41,6,9.35,9.61,16.36,9.61,19,0,2.08.52,2.08,9.87,0,22.33-5.19,40.77-14,50.9-24.93,6.24-6.76,7.79-10.39,7.79-19.74,0-6-.26-7.28-1.81-10.91-2.6-5.72-7.54-10.39-18.19-17.66-14-9.61-20-17.41-21.55-27.79-1.3-8.83.26-14.81,8-31.17,8-16.88,10.13-23.9,11.43-41,.78-10.91,2.07-15.32,5.19-18.7,3.38-3.63,6.23-4.93,14.29-6,13.24-1.82,21.81-5.2,28.57-11.69,6-5.45,8.57-10.91,8.83-19l.26-6L182.08,200C169.87,186,.79,0,0,0-.25,0,3.91,4.93,8.84,11.17ZM88.58,380.5a10.71,10.71,0,0,0-3.38-14.28C80.79,363.36,74,364.66,74,368.55a2.65,2.65,0,0,0,2.08,2.6c2.34,1.3,2.6,2.6.78,5.45s-1.82,5.46.52,7.28C81.05,386.73,86,385.18,88.58,380.5Z"/><path class="cls-2" d="M193.77,243.88c-6.24,1.82-12.21,8.57-14,15.33-1,4.15-.52,11.69,1.3,14,2.86,3.64,5.46,4.68,12.73,4.68,14.28,0,26.49-6.24,27.79-13.77,1.3-6.23-4.16-14.8-11.69-18.7C206,243.36,197.92,242.59,193.77,243.88Zm16.62,13c2.08-3.12,1.3-6.49-2.6-8.83-7-4.42-17.66-.78-17.66,6,0,3.38,5.46,7,10.65,7C204.16,261,208.83,259,210.39,256.87Z"/></svg>