<svg fill="none" height="24" viewBox="0 0 24 24" width="24" xmlns="http://www.w3.org/2000/svg"><g stroke-linecap="round" stroke-linejoin="round" stroke-width="1.5"><g stroke="#000"><path d="m16.9492 16.95c2.73-2.73 2.73-7.16995 0-9.89995" stroke-miterlimit="10"/><path d="m7.04945 7.05005c-2.73 2.73-2.73 7.16995 0 9.89995" stroke-miterlimit="10"/><path d="m9.66992 13.63c0 .9.69998 1.63 1.55998 1.63h1.76c.75 0 1.36-.64 1.36-1.42 0-.85-.37-1.16-.93-1.35l-2.81-.98c-.55-.19-.93-.5-.93-1.35 0-.79.61-1.42001 1.36-1.42001h1.76c.86 0 1.56.73001 1.56 1.63001"/><path d="m12 7.80005v8.39995"/></g><path d="m4 6c-1.25 1.67-2 3.75-2 6 0 5.52 4.48 10 10 10s10-4.48 10-10-4.48-10-10-10c-1.43 0-2.8.3-4.03.85" stroke="#17191c"/></g></svg>