<svg xmlns="http://www.w3.org/2000/svg" width="48" height="48" fill="none" viewBox="0 0 48 48" id="tether"><path fill="#26A17B" d="M24 48C37.2548 48 48 37.2548 48 24C48 10.7452 37.2548 0 24 0C10.7452 0 0 10.7452 0 24C0 37.2548 10.7452 48 24 48Z"></path><path fill="#fff" d="M26.5582 26.2148V26.2109C26.3923 26.2225 25.5357 26.2727 23.6296 26.2727C22.1055 26.2727 21.0367 26.2302 20.6585 26.2109V26.2148C14.7974 25.9563 10.4257 24.9376 10.4257 23.7145C10.4257 22.4952 14.8013 21.4727 20.6585 21.2142V25.2C21.0405 25.227 22.1402 25.2926 23.6566 25.2926C25.4778 25.2926 26.3884 25.2154 26.5582 25.2V21.218C32.4077 21.4804 36.7678 22.499 36.7678 23.7183C36.7678 24.9376 32.4039 25.9563 26.5582 26.2187V26.2148ZM26.5582 20.8052V17.2399H34.719V11.8032H12.5016V17.2399H20.6624V20.8052C14.0296 21.11 9.04437 22.4219 9.04437 23.9961C9.04437 25.5704 14.0334 26.8823 20.6624 27.191V38.6199H26.5621V27.191C33.1833 26.8862 38.1608 25.5743 38.1608 24C38.1608 22.4296 33.1833 21.1138 26.5621 20.809"></path></svg>